# xmcd
#
# Track frame offsets: 
#        150
#        13847
#        32862
#        52635
#        69453
#        88868
#        106893
#        128584
#        152949
#        192038
#        213774
#        235151
#        251775
#        273879
#        294250
#
# Disc length: 4090 seconds
#
# Revision: 0
# Processed by: cddbd v1.5.2PL0 Copyright (c) Steve Scherf et al.
# Submitted via: ExactAudioCopyFreeDBPlugin 1.0
#
DISCID=c60ff80f
DTITLE=Andy's Blues - Andy's Blues
DYEAR=1900
DGENRE=Blues
TTITLE0=Eric Clapton - I'm Tore Down
TTITLE1=Cream - Crossroads
TTITLE2=Eric Clapton - I Shot The Sheriff
TTITLE3=Eric Clapton - Before You Accuse Me (Take A Look At Yourself)
TTITLE4=George Thorogood - Move It On Over
TTITLE5=Ram Jam - Black Betty
TTITLE6=The Rolling Stones - Miss You
TTITLE7=B. B. King - The Thrill Is Gone
TTITLE8=B. B. King - Why I Sing The Blues
TTITLE9=Eagles - One Of These Nights
TTITLE10=Eagles - Life In The Fast Lane
TTITLE11=Eagles - The Long Run
TTITLE12=Eagles - Those Shoes
TTITLE13=Tom Petty and The Heartbreakers - Mary Jane's Last Dance
TTITLE14=Albert King - Oh, Pretty Woman
EXTD=
EXTT0=
EXTT1=
EXTT2=
EXTT3=
EXTT4=
EXTT5=
EXTT6=
EXTT7=
EXTT8=
EXTT9=
EXTT10=
EXTT11=
EXTT12=
EXTT13=
EXTT14=
PLAYORDER=
